<svg xmlns="http://www.w3.org/2000/svg" viewBox="0 0 256 256" role="img" aria-label="crmPRO">
  <defs>
    <linearGradient id="crmpro-gradient" x1="0" y1="0" x2="1" y2="1">
      <stop offset="0" stop-color="#0f172a" />
      <stop offset="1" stop-color="#0b3b7a" />
    </linearGradient>
  </defs>
  <rect width="256" height="256" rx="56" fill="url(#crmpro-gradient)" />
  <rect x="26" y="26" width="204" height="204" rx="44" fill="#0b1220" fill-opacity="0.45" />
  <g fill="#ffffff">
    <path d="M86 154c-10 0-18-3-24-9s-9-14-9-24 3-18 9-24 14-9 24-9c9 0 17 3 23 8l-8 10c-4-4-9-6-15-6-6 0-11 2-14 5-4 4-6 9-6 16s2 12 6 16c4 4 9 6 15 6 6 0 12-2 17-7l8 10c-6 6-14 8-26 8z"/>
    <path d="M130 155V101h18c10 0 17 2 22 6s8 10 8 18c0 8-3 14-8 18s-12 6-22 6h-7v16h-11zm11-44h7c6 0 10 1 13 3 3 2 4 6 4 11s-1 9-4 11-7 3-13 3h-7v-28z"/>
    <path d="M188 155V101h11v44h23v10h-34z"/>
  </g>
</svg>
